<svg xmlns="http://www.w3.org/2000/svg" width="763.1" height="160.41311917428166" viewBox="0 0 370.056338028169 77.79044876596899" class="css-1j8o68f"><defs id="SvgjsDefs1013"></defs><g id="SvgjsG1014" featurekey="4K7G0D-0" transform="matrix(1.0685500756183097,0,0,1.0685500756183097,-19.127047984045763,-12.395181284791898)" fill="#ffffff"><g ><g><path d="M46.4,40.6c6.8,0,12.4-5.6,12.4-12.4c0-6.8-5.6-12.4-12.4-12.4S34,21.4,34,28.2C34,35,39.6,40.6,46.4,40.6z" style="fill: none;"></path><path d="M46.4,44.7c9.1,0,16.5-7.4,16.5-16.5c0-9.1-7.4-16.6-16.5-16.6s-16.5,7.4-16.5,16.6C29.8,37.3,37.3,44.7,46.4,44.7z     M46.4,15.8c6.8,0,12.4,5.6,12.4,12.4c0,6.8-5.6,12.4-12.4,12.4S34,35,34,28.2C34,21.4,39.6,15.8,46.4,15.8z"></path><path d="M28.2,51.1l9,0c1.1,3.8,4,7.6,9.2,7.6c5.1,0,8-4,9.1-7.6l9,0l1.7,7.2l3.9-1l-2.5-10.2l-15.5,0L52,48.8    c0,0-0.2,1.6-1.1,3.1c-1.1,1.9-2.5,2.8-4.5,2.8c-4.6,0-5.5-5.6-5.5-5.9l-0.2-1.7l-15.5,0l-7.3,28.6l3.9,1L28.2,51.1z"></path></g><g><g><g><polygon points="61.9,83.1 69.5,63.6 72.8,64.9 65.2,84.4     "></polygon><polygon points="87.1,73.5 78.3,83.3 75.7,80.9 82.3,73.7 75.7,67.1 78.2,64.6     "></polygon><polygon points="59,67 52.4,74.3 59,80.8 56.5,83.3 47.6,74.4 56.4,64.7     "></polygon></g></g></g></g></g><g id="SvgjsG1015" featurekey="wPuqcM-0" transform="matrix(1.7893203280554701,0,0,1.7893203280554701,93.28427255134935,6.514586051552589)" fill="#ffffff"><path d="M12.38 20 l-1.06 -2.5 l-6.76 0 l-1.06 2.5 l-3.1 0 l6.22 -14 l2.64 0 l6.24 14 l-3.12 0 z M5.58 15.120000000000001 l4.72 0 l-2.36 -5.54 z M24.62 5.859999999999999 l2.86 0 l0 5.3 l0 8.84 l-2.86 0 l0 -1.28 c-0.06 0.42 -1.08 1.48 -2.88 1.48 c-2.38 0 -5.14 -1.72 -5.14 -5.42 c0 -3.58 2.76 -5.36 5.14 -5.36 c1.8 0 2.82 1.12 2.88 1.34 l0 -4.9 z M22.14 17.66 c1.4 0 2.62 -0.96 2.62 -2.88 c0 -1.86 -1.22 -2.82 -2.62 -2.82 c-1.44 0 -2.76 0.98 -2.76 2.82 c0 1.9 1.32 2.88 2.76 2.88 z M36.02 9.44 c0.26 0 0.5 0 0.76 0.06 l0 2.74 c-0.24 -0.06 -0.48 -0.06 -0.68 -0.06 c-1.92 0 -3.5 1.38 -3.68 3.38 l0 4.44 l-2.86 0 l0 -10.4 l2.86 0 l0 2.6 c0.46 -1.58 1.72 -2.76 3.6 -2.76 z M41.28 5.859999999999999 l0 2.44 l-2.86 0 l0 -2.44 l2.86 0 z M41.28 9.6 l0 10.4 l-2.86 0 l0 -10.4 l2.86 0 z M51.04 9.6 l2.86 0 l0 10.4 l-2.86 0 l0 -1.28 c-0.06 0.42 -1.08 1.48 -2.88 1.48 c-2.38 0 -5.14 -1.72 -5.14 -5.42 c0 -3.58 2.76 -5.36 5.14 -5.36 c1.8 0 2.82 1.12 2.88 1.34 l0 -1.16 z M48.56 17.66 c1.4 0 2.62 -0.96 2.62 -2.88 c0 -1.86 -1.22 -2.82 -2.62 -2.82 c-1.44 0 -2.76 0.98 -2.76 2.82 c0 1.9 1.32 2.88 2.76 2.88 z M62.16 9.44 c1.98 0 3.94 1.3 3.94 4.58 l0 5.98 l-2.86 0 l0 -5.78 c0 -1.7 -0.66 -2.28 -1.76 -2.28 c-1.52 0 -2.42 1.44 -2.64 2.16 l0 5.9 l-2.86 0 l0 -10.4 l2.86 0 l0 1.92 c0.2 -0.54 1.32 -2.08 3.32 -2.08 z M79.2 6 c3.98 0 7.1 3.12 7.1 6.92 c0 3.96 -3.12 7.08 -7.1 7.08 l-5 0 l0 -14 l5 0 z M79.18 17.240000000000002 c2.68 0 4.12 -1.94 4.12 -4.32 c0 -2.22 -1.44 -4.16 -4.12 -4.16 l-2.06 0 l0 8.48 l2.06 0 z M91.94 20.16 c-1.98 0 -3.94 -1.3 -3.94 -4.58 l0 -5.98 l2.86 0 l0 5.78 c0 1.7 0.66 2.28 1.76 2.28 c1.52 0 2.42 -1.44 2.64 -2.16 l0 -5.9 l2.86 0 l0 10.4 l-2.86 0 l0 -1.92 c-0.2 0.54 -1.32 2.08 -3.32 2.08 z M106.38 9.44 c1.98 0 3.94 1.3 3.94 4.58 l0 5.98 l-2.86 0 l0 -5.78 c0 -1.7 -0.66 -2.28 -1.76 -2.28 c-1.52 0 -2.42 1.44 -2.64 2.16 l0 5.9 l-2.86 0 l0 -10.4 l2.86 0 l0 1.92 c0.2 -0.54 1.32 -2.08 3.32 -2.08 z M118.44 9.44 c1.98 0 3.94 1.3 3.94 4.58 l0 5.98 l-2.86 0 l0 -5.78 c0 -1.7 -0.66 -2.28 -1.76 -2.28 c-1.52 0 -2.42 1.44 -2.64 2.16 l0 5.9 l-2.86 0 l0 -14.14 l2.86 0 l0 5.66 c0.2 -0.54 1.32 -2.08 3.32 -2.08 z M132 9.6 l2.86 0 l0 10.4 l-2.86 0 l0 -1.28 c-0.06 0.42 -1.08 1.48 -2.88 1.48 c-2.38 0 -5.14 -1.72 -5.14 -5.42 c0 -3.58 2.76 -5.36 5.14 -5.36 c1.8 0 2.82 1.12 2.88 1.34 l0 -1.16 z M129.52 17.66 c1.4 0 2.62 -0.96 2.62 -2.88 c0 -1.86 -1.22 -2.82 -2.62 -2.82 c-1.44 0 -2.76 0.98 -2.76 2.82 c0 1.9 1.32 2.88 2.76 2.88 z M150.56 9.44 c2.16 0 4.12 1.4 4.12 4.88 l0 5.68 l-2.86 0 l0 -5.62 c0 -1.44 -0.66 -2.44 -2.14 -2.44 c-1.34 0 -2.18 1.14 -2.44 2.2 l0 5.86 l-2.86 0 l0 -5.62 c0 -1.44 -0.9 -2.44 -2.14 -2.44 c-1.4 0 -2.22 1 -2.44 2.2 l0 5.86 l-2.86 0 l0 -10.4 l2.86 0 l0 2 c0.06 -0.54 1.08 -2.16 3.16 -2.16 c1.48 0 2.96 0.8 3.76 2.34 c0.28 -0.66 1.48 -2.34 3.84 -2.34 z"></path></g><g id="SvgjsG1016" featurekey="Li3fkV-0" transform="matrix(0.5968491881377415,0,0,0.5968491881377415,93.36733989472597,49.72938568496703)" fill="#ffffff"><path d="M5.98 5.48 q2.46 0 3.86 1.78 l-1.14 0.82 q-1.04 -1.4 -2.76 -1.4 q-1.4 0 -2.27 0.72 t-0.91 1.96 q0 1.08 0.66 1.75 t2.3 1.13 q2.16 0.64 2.88 1.13 t1.09 1.21 t0.37 1.8 q0 1.72 -1.23 2.83 t-3.17 1.15 q-3.06 0 -4.6 -2.14 l1.26 -0.84 q1.06 1.76 3.24 1.78 q1.42 0 2.3 -0.79 t0.88 -1.99 q0 -0.7 -0.25 -1.15 t-0.76 -0.78 t-1.3 -0.6 t-1.85 -0.63 q-1.6 -0.52 -2.37 -1.46 t-0.77 -2.4 q0 -1.72 1.29 -2.8 t3.25 -1.08 z M27.684 12.92 q0 2.7 1.66 4.45 t4.34 1.79 q2.7 0 4.34 -1.77 t1.66 -4.47 q0 -2.74 -1.64 -4.47 t-4.38 -1.77 q-2.68 0 -4.32 1.76 t-1.66 4.48 z M33.684 5.48 q2.16 0 3.82 0.95 t2.57 2.66 t0.93 3.83 q0 3.26 -2.06 5.33 t-5.26 2.11 q-3.22 0 -5.24 -2.09 t-2.08 -5.35 q0.02 -3.26 2.04 -5.32 t5.28 -2.12 z M66.668 5.84 l0 1.2 l-7.16 0 l0 5.04 l6.66 0 l0 1.2 l-6.66 0 l0 6.72 l-1.32 0 l0 -14.16 l8.48 0 z M92.83200000000001 5.84 l0 1.2 l-4.84 0 l0 12.96 l-1.32 0 l0 -12.96 l-4.84 0 l0 -1.2 l11 0 z M108.75600000000001 5.84 l3.52 12.54 l0.04 0 l3.58 -12.54 l1.68 0 l3.58 12.54 l0.04 0 l3.52 -12.54 l1.36 0 l-4.12 14.14 l-0.02 0.02 l-1.6 0 l-3.58 -12.6 l-0.04 0 l-3.58 12.6 l-1.62 0 l-4.12 -14.16 l1.36 0 z M144.00000000000003 15.04 l6.5 0 l-3.2 -7.76 z M148.04000000000002 5.84 l5.96 14.16 l-1.48 0 l-1.54 -3.76 l-7.5 0 l-1.6 3.76 l-1.38 0 l6.18 -14.16 l1.36 0 z M174.48400000000004 12.08 q1.54 0 2.38 -0.69 t0.84 -1.83 t-0.82 -1.82 t-2.44 -0.7 l-2.86 0 l0 5.04 l2.9 0 z M174.08400000000003 5.84 q4.9 0 4.94 3.72 q0 3.14 -3.62 3.64 l4.12 6.8 l-1.5 0 l-3.98 -6.72 l-2.46 0 l0 6.72 l-1.32 0 l0 -14.16 l3.82 0 z M205.00800000000004 5.84 l0 1.2 l-7.34 0 l0 5.04 l6.88 0 l0 1.2 l-6.88 0 l0 5.52 l7.66 0 l0 1.2 l-8.98 0 l0 -14.16 l8.66 0 z M250.51600000000005 5.84 l0 1.2 l-7.34 0 l0 5.04 l6.88 0 l0 1.2 l-6.88 0 l0 5.52 l7.66 0 l0 1.2 l-8.98 0 l0 -14.16 l8.66 0 z M269.64000000000004 5.84 l8.62 12.4 l0.04 0 l0 -12.4 l1.32 0 l0 14.16 l-1.7 0 l-8.62 -12.4 l-0.04 0 l0 12.4 l-1.32 0 l0 -14.16 l1.7 0 z M304.124 5.48 q3.2 -0.02 5.1 1.96 l-0.96 1 q-0.6 -0.74 -1.77 -1.25 t-2.37 -0.51 q-2.66 0 -4.32 1.76 t-1.68 4.48 q0 2.7 1.64 4.44 t4.38 1.8 q2.6 0 3.94 -0.84 l0 -4.76 l-3.4 0 l0 -1.2 l4.72 0 l0 6.72 q-2.3 1.28 -5.28 1.28 q-3.2 0 -5.23 -2.09 t-2.09 -5.35 q0.02 -3.28 2.06 -5.34 t5.26 -2.1 z M328.82800000000003 5.84 l0 14.16 l-1.32 0 l0 -14.16 l1.32 0 z M348.632 5.84 l8.62 12.4 l0.04 0 l0 -12.4 l1.32 0 l0 14.16 l-1.7 0 l-8.62 -12.4 l-0.04 0 l0 12.4 l-1.32 0 l0 -14.16 l1.7 0 z M385.37600000000003 5.84 l0 1.2 l-7.34 0 l0 5.04 l6.88 0 l0 1.2 l-6.88 0 l0 5.52 l7.66 0 l0 1.2 l-8.98 0 l0 -14.16 l8.66 0 z M411.46000000000004 5.84 l0 1.2 l-7.34 0 l0 5.04 l6.88 0 l0 1.2 l-6.88 0 l0 5.52 l7.66 0 l0 1.2 l-8.98 0 l0 -14.16 l8.66 0 z M433.10400000000004 12.08 q1.54 0 2.38 -0.69 t0.84 -1.83 t-0.82 -1.82 t-2.44 -0.7 l-2.86 0 l0 5.04 l2.9 0 z M432.704 5.84 q4.9 0 4.94 3.72 q0 3.14 -3.62 3.64 l4.12 6.8 l-1.5 0 l-3.98 -6.72 l-2.46 0 l0 6.72 l-1.32 0 l0 -14.16 l3.82 0 z"></path></g></svg>