<svg xmlns="http://www.w3.org/2000/svg" class="css-ze2te4 css-qd6ojx" viewBox="0 0 73.94366197183099 77.79044876596899"><g transform="translate(-19.127047984045763, -12.395181284791898) scale(1.0685500756183097)" class="css-1e98oqk" fill="#ffffff"><g ><g><path d="M46.4,40.6c6.8,0,12.4-5.6,12.4-12.4c0-6.8-5.6-12.4-12.4-12.4S34,21.4,34,28.2C34,35,39.6,40.6,46.4,40.6z" style="fill: none;"></path><path d="M46.4,44.7c9.1,0,16.5-7.4,16.5-16.5c0-9.1-7.4-16.6-16.5-16.6s-16.5,7.4-16.5,16.6C29.8,37.3,37.3,44.7,46.4,44.7z     M46.4,15.8c6.8,0,12.4,5.6,12.4,12.4c0,6.8-5.6,12.4-12.4,12.4S34,35,34,28.2C34,21.4,39.6,15.8,46.4,15.8z"></path><path d="M28.2,51.1l9,0c1.1,3.8,4,7.6,9.2,7.6c5.1,0,8-4,9.1-7.6l9,0l1.7,7.2l3.9-1l-2.5-10.2l-15.5,0L52,48.8    c0,0-0.2,1.6-1.1,3.1c-1.1,1.9-2.5,2.8-4.5,2.8c-4.6,0-5.5-5.6-5.5-5.9l-0.2-1.7l-15.5,0l-7.3,28.6l3.9,1L28.2,51.1z"></path></g><g><g><g><polygon points="61.9,83.1 69.5,63.6 72.8,64.9 65.2,84.4     "></polygon><polygon points="87.1,73.5 78.3,83.3 75.7,80.9 82.3,73.7 75.7,67.1 78.2,64.6     "></polygon><polygon points="59,67 52.4,74.3 59,80.8 56.5,83.3 47.6,74.4 56.4,64.7     "></polygon></g></g></g></g></g></svg>