<?xml version="1.0" standalone="no"?>
<!DOCTYPE svg PUBLIC "-//W3C//DTD SVG 20010904//EN"
 "http://www.w3.org/TR/2001/REC-SVG-20010904/DTD/svg10.dtd">
<svg version="1.0" xmlns="http://www.w3.org/2000/svg"
 width="624.000000pt" height="624.000000pt" viewBox="0 0 624.000000 624.000000"
 preserveAspectRatio="xMidYMid meet">
<metadata>
Created by potrace 1.14, written by Peter Selinger 2001-2017
</metadata>
<g transform="translate(0.000000,624.000000) scale(0.100000,-0.100000)"
fill="#000000" stroke="none">
<path d="M2395 6225 c-103 -19 -114 -21 -184 -40 -36 -9 -93 -29 -128 -45 -35
-16 -63 -27 -63 -25 0 2 -32 -14 -71 -36 -40 -21 -74 -39 -76 -39 -2 0 -9 -4
-16 -10 -7 -5 -48 -36 -92 -68 -132 -96 -244 -214 -338 -357 -105 -158 -174
-323 -211 -507 -50 -244 -31 -522 50 -751 26 -72 102 -237 113 -247 3 -3 12
-17 20 -32 8 -16 18 -28 23 -28 4 0 8 -5 8 -11 0 -17 90 -129 165 -204 70 -71
167 -155 179 -155 3 0 15 -8 26 -18 42 -36 278 -157 325 -167 6 -2 41 -12 79
-24 70 -22 76 -23 186 -42 103 -19 438 -14 470 6 4 2 22 7 41 10 222 38 523
204 704 388 104 106 245 299 245 336 0 6 5 11 10 11 6 0 10 5 10 11 0 5 11 34
23 62 20 44 37 92 75 207 7 20 8 26 21 95 31 160 33 338 6 520 -30 201 -142
448 -284 630 -170 216 -415 392 -646 465 -22 7 -44 15 -50 19 -5 3 -17 6 -24
8 -8 1 -44 9 -80 17 -113 27 -122 28 -286 31 -100 2 -186 -2 -230 -10z m405
-364 c255 -52 488 -198 646 -402 24 -32 44 -62 44 -68 0 -6 4 -11 8 -11 8 0
82 -139 82 -155 0 -6 7 -23 15 -39 13 -25 38 -107 51 -171 12 -55 17 -119 16
-205 -1 -142 -11 -198 -57 -335 -127 -378 -476 -663 -870 -711 -117 -14 -279
-7 -370 18 -22 6 -44 11 -50 12 -5 1 -14 4 -20 7 -5 4 -23 9 -40 13 -37 9
-191 85 -237 117 -234 164 -384 381 -452 654 -13 50 -30 213 -28 250 1 6 3 35
5 65 5 59 35 219 45 235 4 6 7 15 8 20 1 6 10 28 20 50 10 22 19 45 20 52 5
27 103 180 155 242 31 36 82 88 115 116 32 27 61 52 64 55 3 3 28 20 55 37
131 82 286 141 418 160 23 3 44 7 46 8 8 8 261 -4 311 -14z"/>
<path d="M791 3190 c-8 -4 -113 -405 -247 -940 -2 -8 -8 -33 -14 -55 -6 -22
-13 -51 -16 -65 -3 -14 -13 -54 -24 -90 -17 -60 -118 -456 -125 -491 -2 -8
-15 -60 -29 -115 -15 -54 -28 -108 -30 -120 -2 -11 -11 -43 -19 -70 -8 -27
-15 -52 -16 -56 0 -5 -1 -9 -1 -10 -1 -2 -25 -97 -55 -213 -29 -116 -50 -213
-47 -217 4 -4 19 -9 32 -12 14 -2 25 -5 25 -6 0 -1 9 -4 20 -6 33 -8 50 -12
53 -14 2 -3 6 -4 54 -13 21 -5 40 -8 43 -8 2 0 19 -6 37 -13 59 -23 60 -21 99
127 19 75 34 137 33 137 -1 0 5 21 13 48 8 26 17 58 19 72 3 14 23 97 45 185
22 88 43 174 46 190 3 17 9 38 14 48 5 9 8 17 5 17 -2 0 6 38 19 84 13 47 21
87 17 90 -3 3 -1 6 4 6 5 0 11 10 12 23 1 12 20 94 43 182 22 88 43 171 45
185 3 14 8 34 11 45 4 11 8 25 9 30 1 6 32 129 69 275 36 146 69 276 71 290 3
14 8 34 11 45 9 26 10 32 12 53 4 47 -4 46 396 47 207 0 380 -2 384 -5 5 -3
11 -18 15 -35 8 -33 104 -237 115 -245 4 -3 21 -25 38 -50 73 -107 194 -203
335 -264 98 -43 308 -64 428 -42 169 31 331 130 445 271 22 28 43 52 46 55 17
14 86 146 118 225 l36 90 383 0 c322 0 383 -2 387 -14 3 -8 14 -53 25 -100 15
-68 82 -350 95 -396 1 -5 6 -29 10 -53 4 -23 11 -45 16 -48 5 -2 37 3 71 12
35 9 71 18 81 20 10 2 27 6 37 9 10 3 27 8 38 10 10 2 38 9 61 16 40 12 41 14
35 43 -3 17 -6 39 -7 49 -1 9 -5 17 -10 17 -4 0 -6 4 -3 9 3 4 1 21 -5 37 -9
26 -104 409 -113 459 -6 27 -11 46 -36 145 -12 47 -23 90 -24 97 -1 7 -6 16
-10 20 -4 4 -304 8 -667 9 l-659 0 -1 -25 c-4 -119 -20 -221 -39 -246 -4 -5
-10 -22 -14 -37 -16 -70 -119 -211 -200 -276 -29 -23 -105 -51 -159 -58 -28
-4 -58 -8 -65 -9 -12 -1 -94 9 -132 18 -84 18 -260 174 -260 231 0 9 -4 16 -8
16 -15 0 -68 156 -78 228 -4 26 -8 61 -11 77 -2 17 -4 40 -4 53 1 12 -5 23
-12 24 -36 5 -1308 3 -1316 -2z"/>
<path d="M4573 1763 c-19 -53 -205 -531 -213 -548 -10 -21 -159 -403 -164
-420 -2 -5 -7 -21 -13 -35 -6 -14 -16 -43 -24 -65 -8 -22 -16 -42 -19 -45 -3
-3 -11 -23 -19 -45 -15 -45 -98 -260 -112 -290 -5 -11 -24 -60 -43 -110 l-34
-90 41 -20 c23 -10 44 -19 47 -20 6 0 65 -23 95 -36 65 -28 99 -39 103 -34 3
3 2 5 -3 5 -4 0 -3 6 3 13 6 7 38 85 72 172 33 88 67 174 74 190 8 17 17 41
21 55 4 14 13 39 21 55 7 17 38 93 67 170 171 439 217 557 282 725 40 102 80
202 89 224 18 43 21 70 6 61 -5 -3 -10 -1 -10 4 0 6 -3 10 -7 9 -5 0 -17 2
-28 7 -76 31 -216 85 -221 85 -2 0 -7 -8 -11 -17z"/>
<path d="M3422 1647 c-47 -50 -71 -76 -165 -181 -40 -44 -81 -89 -92 -102 -11
-12 -52 -57 -92 -100 -39 -44 -80 -89 -90 -100 -18 -21 -149 -165 -230 -253
-23 -25 -43 -49 -43 -52 0 -8 750 -759 759 -759 3 0 53 47 109 104 l104 105
-284 280 c-281 277 -283 280 -263 299 11 10 52 54 90 97 39 43 84 93 100 111
17 17 43 47 59 65 39 44 199 223 207 229 3 3 24 26 48 52 l43 47 -30 28 c-16
15 -57 53 -92 83 -35 30 -72 63 -82 72 -17 17 -19 15 -56 -25z"/>
<path d="M5218 1589 c-54 -55 -98 -103 -98 -107 0 -4 124 -131 275 -282 151
-150 275 -278 275 -283 0 -5 -17 -27 -37 -49 -21 -23 -45 -48 -53 -58 -16 -17
-208 -227 -225 -246 -14 -15 -156 -170 -200 -218 -19 -21 -35 -42 -35 -46 0
-7 197 -193 211 -198 9 -4 18 5 114 114 69 77 121 135 202 224 23 25 51 56 62
69 23 26 145 162 177 198 12 12 52 57 90 100 38 42 79 88 92 102 l23 25 -378
378 c-208 208 -382 378 -388 377 -5 0 -54 -45 -107 -100z"/>
</g>
</svg>
